<svg width="108" height="42" viewBox="0 0 108 42" fill="none" xmlns="http://www.w3.org/2000/svg">
<path fill-rule="evenodd" clip-rule="evenodd" d="M14.2561 0.0813084C14.2561 0.126028 14.2195 0.162617 14.1748 0.162617C14.13 0.162617 14.0935 0.187009 14.0935 0.216822C14.0935 0.246636 14.0569 0.271028 14.0121 0.271028C13.9674 0.271028 13.9308 0.305666 13.9308 0.348055C13.9308 0.390389 13.8577 0.441125 13.7682 0.460748C13.6788 0.48037 13.6056 0.531106 13.6056 0.573441C13.6056 0.61583 13.5779 0.650467 13.5441 0.650467C13.5102 0.650467 13.4269 0.710473 13.359 0.783813C13.291 0.857099 13.1723 0.932932 13.0953 0.952284C13.0182 0.971635 12.9551 1.0214 12.9551 1.06286C12.9551 1.10439 12.9279 1.13832 12.8946 1.13832C12.8613 1.13832 12.7393 1.23589 12.6236 1.35514C12.5079 1.47439 12.3888 1.57196 12.3589 1.57196C12.3291 1.57196 12.3047 1.60855 12.3047 1.65327C12.3047 1.69799 12.2681 1.73458 12.2234 1.73458C12.1786 1.73458 12.1421 1.77117 12.1421 1.81589C12.1421 1.86061 12.1055 1.8972 12.0607 1.8972C12.016 1.8972 11.9794 1.93379 11.9794 1.9785C11.9794 2.02322 11.9429 2.05981 11.8981 2.05981C11.8534 2.05981 11.8168 2.0964 11.8168 2.14112C11.8168 2.18584 11.7802 2.22243 11.7355 2.22243C11.6908 2.22243 11.6542 2.25902 11.6542 2.30374C11.6542 2.34846 11.6176 2.38505 11.5729 2.38505C11.5282 2.38505 11.4916 2.42164 11.4916 2.46636C11.4916 2.51108 11.455 2.54766 11.4103 2.54766C11.3656 2.54766 11.329 2.58425 11.329 2.62897C11.329 2.67369 11.2924 2.71028 11.2477 2.71028C11.2029 2.71028 11.1664 2.74687 11.1664 2.79159C11.1664 2.83631 11.1298 2.8729 11.085 2.8729C11.0403 2.8729 11.0037 2.89843 11.0037 2.92971C11.0037 2.96093 10.9428 3.04299 10.8682 3.11205C10.7937 3.18116 10.7327 3.25678 10.7327 3.2802C10.7327 3.30356 10.6473 3.40563 10.543 3.50694C10.4386 3.60831 10.3533 3.71558 10.3533 3.74539C10.3533 3.7752 10.2957 3.85331 10.2253 3.91896C10.1549 3.9846 10.0789 4.09702 10.0563 4.16874C10.0338 4.24045 9.96061 4.35022 9.89372 4.41266C9.82683 4.47511 9.75365 4.58487 9.7311 4.65659C9.70855 4.7283 9.63369 4.83931 9.56469 4.90328C9.49568 4.96719 9.42272 5.08535 9.40256 5.16585C9.38234 5.24629 9.34602 5.31215 9.32179 5.31215C9.29756 5.31215 9.26217 5.38327 9.24303 5.47021C9.22395 5.55721 9.17321 5.64177 9.13034 5.65825C9.08746 5.67473 9.05234 5.74991 9.05234 5.82542C9.05234 5.90088 9.0299 5.96262 9.00241 5.96262C8.97499 5.96262 8.93645 6.03579 8.91682 6.12523C8.8972 6.21467 8.86061 6.28785 8.83551 6.28785C8.81042 6.28785 8.77383 6.36103 8.75421 6.45047C8.73458 6.53991 8.69924 6.61308 8.67572 6.61308C8.65219 6.61308 8.6194 6.71418 8.60281 6.83771C8.58628 6.96125 8.55023 7.07714 8.52275 7.09519C8.49532 7.11324 8.45776 7.22366 8.43927 7.34047C8.42084 7.45734 8.38339 7.5671 8.35612 7.5844C8.32891 7.60174 8.28847 7.75005 8.26636 7.91402C8.24424 8.07799 8.20727 8.22435 8.18423 8.23925C8.1612 8.25416 8.13361 8.4371 8.12303 8.64579L8.10374 9.02523L8.32056 9.0428C8.43981 9.0525 8.5569 9.09516 8.58075 9.13766C8.61007 9.19002 8.72071 9.21495 8.92338 9.21495C9.11717 9.21495 9.25138 9.24363 9.30401 9.29626C9.35182 9.34407 9.48425 9.37757 9.62534 9.37757C9.8026 9.37757 9.86542 9.39882 9.86542 9.45888C9.86542 9.51883 9.92803 9.54019 10.1035 9.54019C10.2652 9.54019 10.3517 9.56631 10.3729 9.6215C10.3933 9.67467 10.4777 9.7028 10.6168 9.7028C10.7559 9.7028 10.8403 9.73094 10.8607 9.78411C10.8779 9.82883 10.9554 9.86542 11.033 9.86542C11.1106 9.86542 11.2107 9.90201 11.2554 9.94673C11.3001 9.99145 11.4082 10.028 11.4954 10.028C11.6004 10.028 11.6542 10.0556 11.6542 10.1093C11.6542 10.1629 11.7078 10.1907 11.811 10.1907C11.9004 10.1907 11.9813 10.2256 11.9991 10.272C12.0162 10.3167 12.0894 10.3533 12.1617 10.3533C12.2339 10.3533 12.3071 10.3899 12.3243 10.4346C12.3414 10.4793 12.4146 10.5159 12.4869 10.5159C12.5592 10.5159 12.6323 10.5525 12.6495 10.5972C12.6667 10.6419 12.7424 10.6785 12.8179 10.6785C12.9038 10.6785 12.9551 10.709 12.9551 10.7598C12.9551 10.8045 12.9917 10.8411 13.0364 10.8411C13.0812 10.8411 13.1178 10.8636 13.1178 10.891C13.1178 10.9185 13.1909 10.957 13.2804 10.9766C13.3698 10.9963 13.443 11.047 13.443 11.0893C13.443 11.1317 13.4796 11.1664 13.5243 11.1664C13.569 11.1664 13.6056 11.1888 13.6056 11.2163C13.6056 11.2437 13.6788 11.2822 13.7682 11.3019C13.8577 11.3215 13.9308 11.3722 13.9308 11.4146C13.9308 11.464 13.9891 11.4916 14.0935 11.4916C14.1978 11.4916 14.2561 11.464 14.2561 11.4146C14.2561 11.3722 14.3293 11.3215 14.4187 11.3019C14.5081 11.2822 14.5813 11.2437 14.5813 11.2163C14.5813 11.1888 14.6179 11.1664 14.6626 11.1664C14.7073 11.1664 14.7439 11.1317 14.7439 11.0893C14.7439 11.047 14.8171 10.9963 14.9065 10.9766C14.996 10.957 15.0692 10.9185 15.0692 10.891C15.0692 10.8636 15.1057 10.8411 15.1505 10.8411C15.1952 10.8411 15.2318 10.8045 15.2318 10.7598C15.2318 10.7056 15.286 10.6785 15.3944 10.6785C15.5028 10.6785 15.557 10.6514 15.557 10.5972C15.557 10.543 15.6112 10.5159 15.7196 10.5159C15.828 10.5159 15.8822 10.4888 15.8822 10.4346C15.8822 10.3804 15.9364 10.3533 16.0449 10.3533C16.1533 10.3533 16.2075 10.3262 16.2075 10.272C16.2075 10.2178 16.2617 10.1907 16.3701 10.1907C16.4785 10.1907 16.5327 10.1636 16.5327 10.1093C16.5327 10.0551 16.5869 10.028 16.6953 10.028C16.8037 10.028 16.8579 10.0009 16.8579 9.94673C16.8579 9.88651 16.9212 9.86542 17.1019 9.86542C17.2825 9.86542 17.3458 9.84434 17.3458 9.78411C17.3458 9.72389 17.4091 9.7028 17.5897 9.7028C17.7704 9.7028 17.8336 9.68172 17.8336 9.6215C17.8336 9.56127 17.8969 9.54019 18.0776 9.54019C18.2582 9.54019 18.3215 9.5191 18.3215 9.45888C18.3215 9.39638 18.3909 9.37757 18.6213 9.37757C18.8379 9.37757 18.9298 9.35497 18.9523 9.29626C18.9747 9.23805 19.0657 9.21495 19.2732 9.21495C19.4645 9.21495 19.5775 9.18921 19.6062 9.13917C19.6372 9.08502 19.7953 9.05792 20.16 9.04431C20.5059 9.03136 20.6777 9.00339 20.693 8.95748C20.7054 8.92024 20.7501 8.88972 20.7924 8.88972C20.8416 8.88972 20.8692 8.83129 20.8692 8.7271C20.8692 8.63766 20.8483 8.56449 20.8228 8.56449C20.7972 8.56449 20.76 8.3887 20.74 8.17383C20.72 7.95896 20.6837 7.76989 20.6593 7.75373C20.6349 7.73753 20.5998 7.62868 20.5813 7.51187C20.5629 7.395 20.5263 7.28523 20.5 7.26794C20.4738 7.2506 20.4372 7.14083 20.4187 7.02402C20.4003 6.90715 20.3634 6.79738 20.3369 6.78009C20.3103 6.76275 20.2717 6.65715 20.2512 6.54533C20.2306 6.43356 20.1916 6.34206 20.1645 6.34206C20.1374 6.34206 20.0992 6.25668 20.0796 6.15234C20.06 6.04799 20.0243 5.96262 20.0001 5.96262C19.976 5.96262 19.9402 5.88944 19.9206 5.8C19.9009 5.71056 19.8651 5.63738 19.8408 5.63738C19.8166 5.63738 19.7815 5.5764 19.7628 5.50187C19.7441 5.42734 19.7048 5.36636 19.6756 5.36636C19.6463 5.36636 19.6224 5.31757 19.6224 5.25794C19.6224 5.19772 19.5863 5.14953 19.5411 5.14953C19.4903 5.14953 19.4598 5.09815 19.4598 5.01234C19.4598 4.93683 19.4254 4.86192 19.3834 4.84576C19.3414 4.82967 19.2921 4.75725 19.2739 4.68488C19.2558 4.61246 19.217 4.55327 19.1878 4.55327C19.1585 4.55327 19.1346 4.50449 19.1346 4.44486C19.1346 4.38464 19.0984 4.33645 19.0533 4.33645C19.0086 4.33645 18.972 4.29986 18.972 4.25514C18.972 4.21042 18.9373 4.17383 18.8949 4.17383C18.8526 4.17383 18.8019 4.10065 18.7822 4.01122C18.7626 3.92178 18.7241 3.8486 18.6967 3.8486C18.6692 3.8486 18.6467 3.81201 18.6467 3.76729C18.6467 3.72257 18.6101 3.68598 18.5654 3.68598C18.5207 3.68598 18.4841 3.64939 18.4841 3.60467C18.4841 3.55995 18.4502 3.52336 18.4087 3.52336C18.3672 3.52336 18.3179 3.46238 18.2992 3.38785C18.2805 3.31332 18.2413 3.25234 18.2121 3.25234C18.1828 3.25234 18.1589 3.21575 18.1589 3.17103C18.1589 3.12631 18.1223 3.08972 18.0776 3.08972C18.0329 3.08972 17.9963 3.05237 17.9963 3.00673C17.9963 2.96104 17.9597 2.90965 17.915 2.89252C17.8702 2.87534 17.8336 2.82731 17.8336 2.78579C17.8336 2.74427 17.7971 2.71028 17.7523 2.71028C17.7076 2.71028 17.671 2.67369 17.671 2.62897C17.671 2.58425 17.6344 2.54766 17.5897 2.54766C17.545 2.54766 17.5084 2.51108 17.5084 2.46636C17.5084 2.42164 17.4718 2.38505 17.4271 2.38505C17.3824 2.38505 17.3458 2.34846 17.3458 2.30374C17.3458 2.25902 17.3092 2.22243 17.2645 2.22243C17.2198 2.22243 17.1832 2.18584 17.1832 2.14112C17.1832 2.0964 17.1466 2.05981 17.1019 2.05981C17.0571 2.05981 17.0206 2.02322 17.0206 1.9785C17.0206 1.93379 16.995 1.8972 16.9638 1.8972C16.9325 1.8972 16.8505 1.83622 16.7814 1.76168C16.7123 1.68715 16.6281 1.62617 16.5942 1.62617C16.5604 1.62617 16.5327 1.58958 16.5327 1.54486C16.5327 1.50014 16.4961 1.46355 16.4514 1.46355C16.4067 1.46355 16.3701 1.42696 16.3701 1.38224C16.3701 1.33752 16.3335 1.30093 16.2888 1.30093C16.2441 1.30093 16.2075 1.2663 16.2075 1.22391C16.2075 1.18157 16.1343 1.13084 16.0449 1.11121C15.9554 1.09159 15.8822 1.04086 15.8822 0.998522C15.8822 0.956133 15.8457 0.921495 15.8009 0.921495C15.7562 0.921495 15.7196 0.897103 15.7196 0.86729C15.7196 0.837477 15.683 0.813084 15.6383 0.813084C15.5936 0.813084 15.557 0.778446 15.557 0.736058C15.557 0.693723 15.4838 0.642987 15.3944 0.623365C15.305 0.603742 15.2318 0.553006 15.2318 0.510671C15.2318 0.468283 15.1952 0.433645 15.1505 0.433645C15.1057 0.433645 15.0692 0.409252 15.0692 0.379439C15.0692 0.349626 15.0326 0.325234 14.9879 0.325234C14.9431 0.325234 14.9065 0.290596 14.9065 0.248207C14.9065 0.205873 14.8334 0.155136 14.7439 0.135514C14.6545 0.115892 14.5813 0.0773517 14.5813 0.0499237C14.5813 0.0224414 14.5081 0 14.4187 0C14.3103 0 14.2561 0.0271028 14.2561 0.0813084ZM3.74019 10.5631C3.74019 10.5891 3.5973 10.6265 3.4226 10.6462L3.10506 10.6821L3.07107 11.046C3.05243 11.246 3.01237 11.418 2.98212 11.4281C2.89556 11.457 2.90802 13.9154 2.99486 13.9443C3.04224 13.9601 3.0682 14.1517 3.08121 14.5811C3.09438 15.0164 3.12203 15.2176 3.17607 15.2717C3.21802 15.3136 3.25234 15.395 3.25234 15.4524C3.25234 15.5464 3.29348 15.557 3.65888 15.557C3.88248 15.557 4.06542 15.5777 4.06542 15.6029C4.06542 15.6282 4.42291 15.6634 4.85975 15.681C5.29665 15.6988 5.66866 15.7353 5.68638 15.7624C5.70416 15.7894 5.92435 15.8271 6.17564 15.846C6.427 15.8649 6.64653 15.9014 6.6635 15.9272C6.68052 15.953 6.85159 15.9902 7.04369 16.0097C7.2358 16.0294 7.40655 16.0664 7.42313 16.092C7.43972 16.1177 7.5935 16.1559 7.76495 16.177C7.93641 16.198 8.07664 16.2379 8.07664 16.2656C8.07664 16.2932 8.16027 16.3159 8.26251 16.3159C8.36468 16.3159 8.48079 16.3483 8.52042 16.388C8.5601 16.4276 8.68791 16.4756 8.80451 16.4945C8.92105 16.5134 9.03065 16.5503 9.04795 16.5766C9.06529 16.6029 9.17506 16.6394 9.29187 16.6579C9.40874 16.6764 9.51851 16.713 9.5358 16.7393C9.55314 16.7655 9.6344 16.8035 9.71636 16.8235C9.79831 16.8436 9.86542 16.884 9.86542 16.9132C9.86542 16.9425 9.93936 16.9664 10.0297 16.9664C10.1258 16.9664 10.207 17.0001 10.2252 17.0477C10.2424 17.0924 10.3156 17.129 10.3879 17.129C10.4602 17.129 10.5333 17.1656 10.5505 17.2103C10.5677 17.255 10.6408 17.2916 10.7131 17.2916C10.7854 17.2916 10.8586 17.3282 10.8757 17.3729C10.8929 17.4176 10.9661 17.4542 11.0383 17.4542C11.1106 17.4542 11.1838 17.4908 11.2009 17.5355C11.2181 17.5802 11.2905 17.6168 11.3619 17.6168C11.441 17.6168 11.4916 17.6485 11.4916 17.6981C11.4916 17.7429 11.5386 17.7794 11.5962 17.7794C11.6536 17.7794 11.7361 17.8148 11.7793 17.8581C11.8226 17.9013 11.9219 17.9527 12 17.9724C12.0781 17.992 12.1421 18.0298 12.1421 18.0563C12.1421 18.0829 12.1786 18.1047 12.2234 18.1047C12.2681 18.1047 12.3047 18.1413 12.3047 18.186C12.3047 18.2307 12.3413 18.2673 12.386 18.2673C12.4307 18.2673 12.4673 18.3039 12.4673 18.3486C12.4673 18.3933 12.5143 18.4299 12.5719 18.4299C12.6293 18.4299 12.7129 18.4665 12.7577 18.5112C12.8024 18.5559 12.8651 18.5925 12.8971 18.5925C12.929 18.5925 12.9551 18.6291 12.9551 18.6738C12.9551 18.7186 12.9917 18.7551 13.0364 18.7551C13.0812 18.7551 13.1178 18.7917 13.1178 18.8365C13.1178 18.8812 13.1648 18.9178 13.2223 18.9178C13.2798 18.9178 13.3634 18.9543 13.4081 18.9991C13.4529 19.0438 13.5156 19.0804 13.5476 19.0804C13.5795 19.0804 13.6056 19.117 13.6056 19.1617C13.6056 19.2064 13.6422 19.243 13.6869 19.243C13.7316 19.243 13.7682 19.2796 13.7682 19.3243C13.7682 19.369 13.8048 19.4056 13.8495 19.4056C13.8943 19.4056 13.9308 19.4422 13.9308 19.4869C13.9308 19.5316 13.9674 19.5682 14.0121 19.5682C14.0569 19.5682 14.0935 19.6048 14.0935 19.6495C14.0935 19.6943 14.13 19.7308 14.1748 19.7308C14.2195 19.7308 14.2561 19.7646 14.2561 19.8058C14.2561 19.8894 14.4821 19.9493 14.6409 19.9078C14.6976 19.8929 14.7439 19.8471 14.7439 19.8058C14.7439 19.7646 14.7805 19.7308 14.8252 19.7308C14.87 19.7308 14.9065 19.6943 14.9065 19.6495C14.9065 19.6048 14.9431 19.5682 14.9879 19.5682C15.0326 19.5682 15.0692 19.5316 15.0692 19.4869C15.0692 19.4422 15.1057 19.4056 15.1505 19.4056C15.1952 19.4056 15.2318 19.369 15.2318 19.3243C15.2318 19.2796 15.2684 19.243 15.3131 19.243C15.3578 19.243 15.3944 19.2064 15.3944 19.1617C15.3944 19.117 15.431 19.0804 15.4757 19.0804C15.5204 19.0804 15.557 19.0438 15.557 18.9991C15.557 18.9543 15.5936 18.9178 15.6383 18.9178C15.683 18.9178 15.7196 18.8953 15.7196 18.8678C15.7196 18.8404 15.7928 18.8019 15.8822 18.7822C15.9717 18.7626 16.0449 18.7119 16.0449 18.6695C16.0449 18.6272 16.0814 18.5925 16.1262 18.5925C16.1709 18.5925 16.2075 18.5559 16.2075 18.5112C16.2075 18.4665 16.2316 18.4299 16.2611 18.4299C16.2905 18.4299 16.3637 18.3879 16.4237 18.3366C16.5578 18.2217 16.5771 17.8473 16.4514 17.7991C16.3982 17.7786 16.3701 17.6942 16.3701 17.5551C16.3701 17.416 16.342 17.3316 16.2888 17.3112C16.2424 17.2934 16.2075 17.2126 16.2075 17.1232C16.2075 17.0199 16.1797 16.9664 16.1262 16.9664C16.0675 16.9664 16.0449 16.9061 16.0449 16.7495C16.0449 16.5929 16.0223 16.5327 15.9636 16.5327C15.9093 16.5327 15.8822 16.4785 15.8822 16.3701C15.8822 16.2617 15.8551 16.2075 15.8009 16.2075C15.7467 16.2075 15.7196 16.1533 15.7196 16.0449C15.7196 15.9365 15.6925 15.8822 15.6383 15.8822C15.5932 15.8822 15.557 15.8341 15.557 15.7738C15.557 15.7136 15.5209 15.6654 15.4757 15.6654C15.4251 15.6654 15.3944 15.6143 15.3944 15.5299C15.3944 15.4456 15.3637 15.3944 15.3131 15.3944C15.2679 15.3944 15.2318 15.3462 15.2318 15.286C15.2318 15.2258 15.1956 15.1776 15.1505 15.1776C15.0999 15.1776 15.0692 15.1264 15.0692 15.0421C15.0692 14.9577 15.0384 14.9065 14.9879 14.9065C14.9427 14.9065 14.9065 14.8584 14.9065 14.7981C14.9065 14.7379 14.8704 14.6897 14.8252 14.6897C14.7747 14.6897 14.7439 14.6386 14.7439 14.5542C14.7439 14.4699 14.7132 14.4187 14.6626 14.4187C14.6179 14.4187 14.5813 14.3821 14.5813 14.3374C14.5813 14.2927 14.5447 14.2561 14.5 14.2561C14.4553 14.2561 14.4187 14.2195 14.4187 14.1748C14.4187 14.13 14.3821 14.0935 14.3374 14.0935C14.2927 14.0935 14.2561 14.0569 14.2561 14.0122C14.2561 13.9674 14.2195 13.9308 14.1748 13.9308C14.13 13.9308 14.0935 13.8943 14.0935 13.8495C14.0935 13.8048 14.0569 13.7682 14.0121 13.7682C13.9674 13.7682 13.9308 13.7316 13.9308 13.6869C13.9308 13.6422 13.8943 13.6056 13.8495 13.6056C13.8048 13.6056 13.7682 13.569 13.7682 13.5243C13.7682 13.4796 13.7316 13.443 13.6869 13.443C13.6422 13.443 13.6056 13.4064 13.6056 13.3617C13.6056 13.317 13.569 13.2804 13.5243 13.2804C13.4796 13.2804 13.443 13.2438 13.443 13.1991C13.443 13.1543 13.4064 13.1178 13.3617 13.1178C13.317 13.1178 13.2804 13.0831 13.2804 13.0407C13.2804 12.9984 13.2072 12.9477 13.1178 12.928C13.0283 12.9084 12.9551 12.8699 12.9551 12.8424C12.9551 12.815 12.9186 12.7925 12.8738 12.7925C12.8291 12.7925 12.7925 12.7579 12.7925 12.7155C12.7925 12.6732 12.7193 12.6224 12.6299 12.6028C12.5405 12.5832 12.4673 12.5446 12.4673 12.5172C12.4673 12.4897 12.4307 12.4673 12.386 12.4673C12.3413 12.4673 12.3047 12.4307 12.3047 12.386C12.3047 12.3351 12.2533 12.3047 12.1675 12.3047C12.092 12.3047 12.0168 12.2695 12.0003 12.2267C11.9838 12.1838 11.8993 12.1331 11.8123 12.114C11.7253 12.0948 11.6542 12.0568 11.6542 12.0294C11.6542 12.0019 11.6194 11.9794 11.5767 11.9794C11.5342 11.9794 11.4657 11.9458 11.4246 11.9047C11.3836 11.8637 11.2721 11.8129 11.1768 11.792C11.0816 11.7711 11.0037 11.7316 11.0037 11.7041C11.0037 11.6766 10.942 11.6542 10.8665 11.6542C10.791 11.6542 10.7153 11.6176 10.6981 11.5729C10.6806 11.5272 10.5999 11.4916 10.5139 11.4916C10.4299 11.4916 10.3244 11.455 10.2797 11.4103C10.235 11.3656 10.1252 11.329 10.0358 11.329C9.94635 11.329 9.84054 11.2963 9.8007 11.2565C9.76086 11.2167 9.62144 11.1697 9.49086 11.1522C9.36033 11.1347 9.23875 11.0975 9.2207 11.0696C9.20265 11.0417 9.05722 11.0066 8.89747 10.9916C8.73778 10.9766 8.59143 10.9395 8.57224 10.909C8.5531 10.8786 8.34712 10.8443 8.11458 10.8327C7.88204 10.8211 7.6747 10.7852 7.65383 10.753C7.63215 10.7195 7.33787 10.6811 6.96672 10.6632C6.58045 10.6446 6.3097 10.6085 6.29815 10.5739C6.27441 10.5026 3.74019 10.4919 3.74019 10.5631ZM21.9976 10.5728C21.9863 10.6064 21.6896 10.6431 21.2748 10.6622C20.8667 10.681 20.5551 10.7192 20.5331 10.7531C20.5122 10.7853 20.3049 10.821 20.0723 10.8324C19.7865 10.8465 19.6355 10.8777 19.6062 10.9285C19.5777 10.9779 19.4633 11.0037 19.2732 11.0037C19.0657 11.0037 18.9747 11.0268 18.9523 11.085C18.9319 11.1383 18.8474 11.1664 18.7072 11.1664C18.5894 11.1664 18.4848 11.1913 18.4746 11.2219C18.4645 11.2524 18.3588 11.2927 18.2398 11.3114C18.1207 11.3301 18.0039 11.3783 17.98 11.4185C17.9553 11.4602 17.8446 11.4916 17.7225 11.4916C17.5684 11.4916 17.5084 11.5144 17.5084 11.5729C17.5084 11.6271 17.4542 11.6542 17.3458 11.6542C17.2374 11.6542 17.1832 11.6813 17.1832 11.7355C17.1832 11.7897 17.129 11.8168 17.0206 11.8168C16.9121 11.8168 16.8579 11.8439 16.8579 11.8981C16.8579 11.9523 16.8037 11.9794 16.6953 11.9794C16.5869 11.9794 16.5327 12.0065 16.5327 12.0607C16.5327 12.115 16.4785 12.1421 16.3701 12.1421C16.2617 12.1421 16.2075 12.1692 16.2075 12.2234C16.2075 12.2776 16.1533 12.3047 16.0449 12.3047C15.9364 12.3047 15.8822 12.3318 15.8822 12.386C15.8822 12.4307 15.8457 12.4673 15.8009 12.4673C15.7562 12.4673 15.7196 12.5039 15.7196 12.5486C15.7196 12.6028 15.6654 12.6299 15.557 12.6299C15.4676 12.6299 15.3944 12.6543 15.3944 12.6841C15.3944 12.7139 15.431 12.7383 15.4757 12.7383C15.5209 12.7383 15.557 12.7865 15.557 12.8467C15.557 12.907 15.5932 12.9551 15.6383 12.9551C15.6889 12.9551 15.7196 13.0063 15.7196 13.0907C15.7196 13.175 15.7504 13.2262 15.8009 13.2262C15.8457 13.2262 15.8822 13.2628 15.8822 13.3075C15.8822 13.3522 15.9188 13.3888 15.9636 13.3888C16.0087 13.3888 16.0449 13.437 16.0449 13.4972C16.0449 13.5574 16.081 13.6056 16.1262 13.6056C16.1709 13.6056 16.2075 13.6422 16.2075 13.6869C16.2075 13.7316 16.2441 13.7682 16.2888 13.7682C16.3335 13.7682 16.3701 13.7944 16.3701 13.8263C16.3701 13.8583 16.4067 13.921 16.4514 13.9657C16.4961 14.0104 16.5327 14.0941 16.5327 14.1515C16.5327 14.209 16.5693 14.2561 16.614 14.2561C16.6587 14.2561 16.6953 14.2822 16.6953 14.3141C16.6953 14.3461 16.7319 14.4088 16.7766 14.4535C16.8214 14.4983 16.8579 14.5819 16.8579 14.6394C16.8579 14.6969 16.8945 14.7439 16.9393 14.7439C16.9898 14.7439 17.0206 14.7951 17.0206 14.8794C17.0206 14.9638 17.0513 15.015 17.1019 15.015C17.1561 15.015 17.1832 15.0692 17.1832 15.1776C17.1832 15.286 17.2103 15.3402 17.2645 15.3402C17.3187 15.3402 17.3458 15.3944 17.3458 15.5028C17.3458 15.6112 17.3729 15.6654 17.4271 15.6654C17.4813 15.6654 17.5084 15.7196 17.5084 15.828C17.5084 15.9365 17.5355 15.9907 17.5897 15.9907C17.6439 15.9907 17.671 16.0449 17.671 16.1533C17.671 16.2617 17.6981 16.3159 17.7523 16.3159C17.8091 16.3159 17.8336 16.3731 17.8336 16.5056C17.8336 16.6381 17.8581 16.6953 17.915 16.6953C17.9737 16.6953 17.9963 16.7556 17.9963 16.9122C17.9963 17.0688 18.0189 17.129 18.0776 17.129C18.1223 17.129 18.1589 17.1656 18.1589 17.2103C18.1589 17.255 18.1955 17.2916 18.2402 17.2916C18.2849 17.2916 18.3215 17.2691 18.3215 17.2417C18.3215 17.2142 18.3947 17.1757 18.4841 17.1561C18.5736 17.1365 18.6467 17.0982 18.6467 17.0711C18.6467 17.044 18.7428 17.0065 18.8602 16.9877C18.9776 16.969 19.0866 16.9198 19.1024 16.8787C19.1183 16.8375 19.2031 16.8037 19.291 16.8037C19.3789 16.8037 19.4591 16.7788 19.4693 16.7482C19.4794 16.7177 19.5849 16.677 19.7037 16.6577C19.8225 16.6385 19.9521 16.5902 19.9917 16.5506C20.0314 16.5109 20.1332 16.4785 20.218 16.4785C20.3029 16.4785 20.3809 16.4525 20.3915 16.4208C20.4021 16.3891 20.52 16.3488 20.6535 16.3314C20.787 16.3139 20.912 16.2756 20.9311 16.2462C20.9503 16.2167 21.0967 16.1804 21.2563 16.1654C21.4161 16.1505 21.5603 16.1173 21.5769 16.0918C21.5935 16.0663 21.7642 16.0294 21.9563 16.0097C22.1484 15.9902 22.3195 15.953 22.3365 15.9272C22.3535 15.9014 22.573 15.8649 22.8244 15.846C23.0757 15.8271 23.2971 15.7874 23.3164 15.7579C23.3357 15.7284 23.7076 15.6921 24.143 15.6773C24.7395 15.6571 24.9346 15.6332 24.9346 15.5805C24.9346 15.542 24.9671 15.478 25.0069 15.4382C25.0538 15.3913 25.0916 15.1479 25.1148 14.7434C25.1344 14.401 25.175 14.1127 25.2051 14.1027C25.2798 14.0777 25.2803 11.0037 25.2056 11.0037C25.1758 11.0037 25.1514 10.9339 25.1514 10.8485C25.1514 10.7049 25.1325 10.6906 24.8999 10.6588C24.7616 10.6398 24.5787 10.6243 24.4933 10.6243C24.4081 10.6243 24.3383 10.5999 24.3383 10.5701C24.3383 10.4937 22.023 10.4964 21.9976 10.5728ZM1.15187 17.3281C0.773839 17.34 0.48785 17.3718 0.48785 17.4017C0.48785 17.4306 0.414673 17.4542 0.325234 17.4542H0.162617V17.7794C0.162617 18.0324 0.144566 18.1047 0.0813084 18.1047C0.0107327 18.1047 0 18.3305 0 19.8122C0 21.2938 0.0107327 21.5196 0.0813084 21.5196C0.149065 21.5196 0.162617 21.628 0.162617 22.1701C0.162617 22.7122 0.176168 22.8206 0.243925 22.8206C0.310164 22.8206 0.325234 22.9109 0.325234 23.3084C0.325234 23.7059 0.340303 23.7963 0.406542 23.7963C0.4698 23.7963 0.48785 23.8685 0.48785 24.1215C0.48785 24.3745 0.505901 24.4467 0.569159 24.4467C0.632417 24.4467 0.650467 24.519 0.650467 24.772C0.650467 25.0249 0.668518 25.0972 0.731776 25.0972C0.791998 25.0972 0.813084 25.1605 0.813084 25.3411C0.813084 25.5218 0.83417 25.585 0.894393 25.585C0.954615 25.585 0.975701 25.6483 0.975701 25.829C0.975701 26.0096 0.996787 26.0729 1.05701 26.0729C1.11121 26.0729 1.13832 26.1271 1.13832 26.2355C1.13832 26.3439 1.16542 26.3981 1.21963 26.3981C1.27795 26.3981 1.30093 26.4577 1.30093 26.6092C1.30093 26.7467 1.32923 26.831 1.38224 26.8514C1.42978 26.8696 1.46355 26.9509 1.46355 27.0469C1.46355 27.1568 1.49049 27.2112 1.54486 27.2112C1.59446 27.2112 1.62617 27.2618 1.62617 27.3409C1.62617 27.4123 1.66276 27.4847 1.70748 27.5019C1.7522 27.519 1.78879 27.5948 1.78879 27.6703C1.78879 27.7561 1.81925 27.8075 1.87009 27.8075C1.9243 27.8075 1.9514 27.8617 1.9514 27.9701C1.9514 28.0785 1.9785 28.1327 2.03271 28.1327C2.07786 28.1327 2.11402 28.1809 2.11402 28.2411C2.11402 28.3013 2.15017 28.3495 2.19533 28.3495C2.2459 28.3495 2.27664 28.4007 2.27664 28.485C2.27664 28.5694 2.30737 28.6206 2.35794 28.6206C2.4031 28.6206 2.43925 28.6688 2.43925 28.729C2.43925 28.7892 2.47541 28.8374 2.52056 28.8374C2.56528 28.8374 2.60187 28.874 2.60187 28.9187C2.60187 28.9634 2.62577 29 2.65504 29C2.68426 29 2.72351 29.061 2.74221 29.1355C2.76091 29.21 2.81018 29.271 2.85165 29.271C2.89317 29.271 2.9271 29.3198 2.9271 29.3794C2.9271 29.4397 2.96326 29.4879 3.00841 29.4879C3.05313 29.4879 3.08972 29.5244 3.08972 29.5692C3.08972 29.6139 3.12631 29.6505 3.17103 29.6505C3.21575 29.6505 3.25234 29.6768 3.25234 29.709C3.25234 29.7411 3.3621 29.8772 3.49626 30.0114C3.63042 30.1455 3.74019 30.2899 3.74019 30.3323C3.74019 30.3747 3.77678 30.4093 3.8215 30.4093C3.86621 30.4093 3.9028 30.4459 3.9028 30.4907C3.9028 30.5354 3.93939 30.572 3.98411 30.572C4.02883 30.572 4.06542 30.6086 4.06542 30.6533C4.06542 30.698 4.10223 30.7346 4.14727 30.7346C4.19226 30.7346 4.27086 30.7834 4.32192 30.843C4.37298 30.9026 4.437 30.9514 4.46427 30.9514C4.49148 30.9514 4.57024 31.0124 4.63935 31.0869C4.70841 31.1615 4.79047 31.2224 4.8217 31.2224C4.85297 31.2224 4.8785 31.259 4.8785 31.3037C4.8785 31.3485 4.91509 31.385 4.95981 31.385C5.00453 31.385 5.04112 31.419 5.04112 31.4605C5.04112 31.502 5.1021 31.5512 5.17664 31.5699C5.25117 31.5886 5.31215 31.6279 5.31215 31.6571C5.31215 31.6864 5.36093 31.7103 5.42056 31.7103C5.48019 31.7103 5.52897 31.7449 5.52897 31.7873C5.52897 31.8296 5.60215 31.8804 5.69159 31.9C5.78103 31.9196 5.85421 31.9555 5.85421 31.9797C5.85421 32.004 5.91519 32.0391 5.98972 32.0578C6.06425 32.0765 6.12523 32.1157 6.12523 32.145C6.12523 32.1742 6.17402 32.1981 6.23364 32.1981C6.29387 32.1981 6.34206 32.2343 6.34206 32.2794C6.34206 32.3303 6.39344 32.3607 6.47925 32.3607C6.55476 32.3607 6.63054 32.3973 6.64767 32.4421C6.66485 32.4868 6.73803 32.5234 6.81028 32.5234C6.88259 32.5234 6.95577 32.56 6.9729 32.6047C6.99008 32.6494 7.06326 32.686 7.13552 32.686C7.20783 32.686 7.28101 32.7226 7.29813 32.7673C7.3157 32.813 7.39636 32.8486 7.48233 32.8486C7.5664 32.8486 7.67183 32.8852 7.71655 32.9299C7.76127 32.9746 7.86133 33.0112 7.93895 33.0112C8.01657 33.0112 8.09409 33.0478 8.11122 33.0925C8.13165 33.1457 8.21611 33.1738 8.35514 33.1738C8.49424 33.1738 8.57869 33.202 8.59907 33.2551C8.6195 33.3083 8.70396 33.3365 8.84299 33.3365C8.98209 33.3365 9.06654 33.3646 9.08692 33.4178C9.10801 33.4727 9.19419 33.4991 9.35242 33.4991C9.48121 33.4991 9.62068 33.5331 9.66231 33.5747C9.70394 33.6164 9.87637 33.6591 10.0455 33.6696L10.353 33.6888L10.3667 31.3424C10.3763 29.6969 10.3983 28.9844 10.4405 28.9573C10.4738 28.9359 10.5133 28.6923 10.529 28.4109C10.5445 28.1316 10.5808 27.8877 10.6096 27.8688C10.6384 27.85 10.6774 27.6656 10.6962 27.459C10.715 27.2525 10.752 27.0696 10.7782 27.0525C10.8045 27.0354 10.8385 26.8884 10.8538 26.7256C10.8691 26.563 10.909 26.4207 10.9426 26.4095C10.9763 26.3982 11.0037 26.2806 11.0037 26.148C11.0037 25.9837 11.0296 25.8969 11.085 25.8757C11.1381 25.8553 11.1664 25.771 11.1664 25.6335C11.1664 25.482 11.1893 25.4224 11.2477 25.4224C11.3079 25.4224 11.329 25.3592 11.329 25.1785C11.329 25.0082 11.3514 24.9346 11.4031 24.9346C11.4494 24.9346 11.4889 24.8482 11.5081 24.7054C11.525 24.5793 11.5648 24.4675 11.5965 24.4569C11.6282 24.4464 11.6542 24.3666 11.6542 24.2796C11.6542 24.1752 11.6819 24.1215 11.7355 24.1215C11.7897 24.1215 11.8168 24.0673 11.8168 23.9589C11.8168 23.8505 11.8439 23.7963 11.8981 23.7963C11.9523 23.7963 11.9794 23.7421 11.9794 23.6336C11.9794 23.5252 12.0065 23.471 12.0607 23.471C12.115 23.471 12.1421 23.4168 12.1421 23.3084C12.1421 23.2 12.1692 23.1458 12.2234 23.1458C12.2776 23.1458 12.3047 23.0916 12.3047 22.9832C12.3047 22.8788 12.3323 22.8206 12.3817 22.8206C12.424 22.8206 12.4748 22.7474 12.4944 22.6579C12.514 22.5685 12.5526 22.4953 12.58 22.4953C12.6075 22.4953 12.6299 22.4587 12.6299 22.414C12.6299 22.3693 12.6665 22.3327 12.7112 22.3327C12.7654 22.3327 12.7925 22.2785 12.7925 22.1701C12.7925 22.0617 12.8196 22.0075 12.8738 22.0075C12.9186 22.0075 12.9551 21.9709 12.9551 21.9262C12.9551 21.8815 12.9917 21.8449 13.0364 21.8449C13.0907 21.8449 13.1178 21.7907 13.1178 21.6822C13.1178 21.5738 13.1449 21.5196 13.1991 21.5196C13.2533 21.5196 13.2804 21.4654 13.2804 21.357C13.2804 21.2486 13.2533 21.1944 13.1991 21.1944C13.1543 21.1944 13.1178 21.1578 13.1178 21.1131C13.1178 21.0684 13.0812 21.0318 13.0364 21.0318C12.9917 21.0318 12.9551 20.9952 12.9551 20.9505C12.9551 20.9057 12.9186 20.8692 12.8738 20.8692C12.8291 20.8692 12.7925 20.8326 12.7925 20.7879C12.7925 20.7431 12.7559 20.7065 12.7112 20.7065C12.6665 20.7065 12.6299 20.67 12.6299 20.6252C12.6299 20.5805 12.5933 20.5439 12.5486 20.5439C12.5039 20.5439 12.4673 20.5073 12.4673 20.4626C12.4673 20.4179 12.4307 20.3813 12.386 20.3813C12.3413 20.3813 12.3047 20.3574 12.3047 20.3281C12.3047 20.2989 12.2437 20.2597 12.1692 20.241C12.0946 20.2223 12.0336 20.173 12.0336 20.1315C12.0336 20.09 11.9849 20.0561 11.9252 20.0561C11.865 20.0561 11.8168 20.0199 11.8168 19.9748C11.8168 19.93 11.7907 19.8935 11.7588 19.8935C11.7268 19.8935 11.6641 19.8569 11.6194 19.8122C11.5746 19.7674 11.491 19.7308 11.4335 19.7308C11.376 19.7308 11.329 19.6943 11.329 19.6495C11.329 19.6048 11.2924 19.5682 11.2477 19.5682C11.2029 19.5682 11.1664 19.5458 11.1664 19.5183C11.1664 19.4909 11.0932 19.4523 11.0037 19.4327C10.9143 19.4131 10.8411 19.3624 10.8411 19.32C10.8411 19.2749 10.7873 19.243 10.7114 19.243C10.6401 19.243 10.5677 19.2064 10.5505 19.1617C10.5333 19.117 10.4602 19.0804 10.3879 19.0804C10.3156 19.0804 10.2424 19.0438 10.2252 18.9991C10.2081 18.9543 10.1567 18.9178 10.111 18.9178C10.0654 18.9178 10.028 18.8953 10.028 18.8678C10.028 18.8404 9.95486 18.8019 9.86542 18.7822C9.77598 18.7626 9.7028 18.7244 9.7028 18.6973C9.7028 18.6702 9.60675 18.6326 9.48934 18.6139C9.37193 18.5951 9.26292 18.546 9.2471 18.5048C9.23127 18.4636 9.14644 18.4299 9.05857 18.4299C8.97065 18.4299 8.89042 18.4049 8.88023 18.3744C8.8701 18.3439 8.76461 18.3032 8.64585 18.2839C8.52708 18.2646 8.39748 18.2164 8.3578 18.1768C8.31818 18.1371 8.20207 18.1047 8.09989 18.1047C7.99766 18.1047 7.91402 18.0826 7.91402 18.0556C7.91402 18.0285 7.78593 17.989 7.62944 17.9677C7.47295 17.9464 7.33082 17.9069 7.31369 17.8799C7.29651 17.8529 7.15015 17.8155 6.98846 17.7968C6.82671 17.7781 6.68079 17.7423 6.6642 17.7172C6.64761 17.692 6.44635 17.6556 6.217 17.6362C5.98766 17.6168 5.8 17.5824 5.8 17.5597C5.8 17.5371 5.5622 17.5009 5.2715 17.4794C4.98079 17.4579 4.7302 17.4204 4.71459 17.3962C4.68196 17.3454 2.1396 17.2968 1.15187 17.3281ZM24.921 17.3279C24.6005 17.3397 24.3383 17.3694 24.3383 17.3939C24.3383 17.4183 24.0768 17.4551 23.7573 17.4758C23.4377 17.4965 23.1633 17.5337 23.1475 17.5586C23.1316 17.5835 22.9175 17.6215 22.6715 17.6431C22.4255 17.6647 22.2243 17.7018 22.2243 17.7256C22.2243 17.7494 22.0779 17.7858 21.8991 17.8065C21.7202 17.8273 21.5738 17.8631 21.5738 17.8862C21.5738 17.9092 21.4519 17.9443 21.3028 17.9641C21.1537 17.9838 21.0318 18.0235 21.0318 18.0523C21.0318 18.0811 20.9334 18.1047 20.8133 18.1047C20.669 18.1047 20.5841 18.1323 20.5635 18.186C20.546 18.2317 20.4653 18.2673 20.3794 18.2673C20.2953 18.2673 20.194 18.2997 20.1543 18.3394C20.1147 18.379 19.9869 18.427 19.8703 18.4459C19.7537 18.4648 19.6439 18.5036 19.6263 18.5321C19.6087 18.5606 19.5274 18.6007 19.4457 18.6212C19.364 18.6417 19.2972 18.6802 19.2972 18.7068C19.2972 18.7334 19.2501 18.7551 19.1926 18.7551C19.1352 18.7551 19.0557 18.7876 19.016 18.8273C18.9762 18.867 18.8769 18.9162 18.7953 18.9367C18.7136 18.9573 18.6467 18.996 18.6467 19.0229C18.6467 19.0497 18.5736 19.0879 18.4841 19.1075C18.3947 19.1271 18.3215 19.1656 18.3215 19.1931C18.3215 19.2206 18.2849 19.243 18.2402 19.243C18.1955 19.243 18.1589 19.2796 18.1589 19.3243C18.1589 19.3785 18.1047 19.4056 17.9963 19.4056C17.8919 19.4056 17.8336 19.4332 17.8336 19.4826C17.8336 19.525 17.7605 19.5757 17.671 19.5953C17.5816 19.615 17.5084 19.6535 17.5084 19.6809C17.5084 19.7084 17.4718 19.7308 17.4271 19.7308C17.3824 19.7308 17.3458 19.7674 17.3458 19.8122C17.3458 19.8569 17.3092 19.8935 17.2645 19.8935C17.2198 19.8935 17.1832 19.93 17.1832 19.9748C17.1832 20.029 17.129 20.0561 17.0206 20.0561C16.9121 20.0561 16.8579 20.0832 16.8579 20.1374C16.8579 20.1821 16.8214 20.2187 16.7766 20.2187C16.7319 20.2187 16.6953 20.2553 16.6953 20.3C16.6953 20.3447 16.6587 20.3813 16.614 20.3813C16.5693 20.3813 16.5327 20.4179 16.5327 20.4626C16.5327 20.5073 16.4961 20.5439 16.4514 20.5439C16.4067 20.5439 16.3701 20.5805 16.3701 20.6252C16.3701 20.67 16.3335 20.7065 16.2888 20.7065C16.2441 20.7065 16.2075 20.7412 16.2075 20.7836C16.2075 20.8259 16.1343 20.8766 16.0449 20.8963C15.9188 20.924 15.8822 20.9615 15.8822 21.0632C15.8822 21.1437 15.8508 21.1944 15.8009 21.1944C15.7562 21.1944 15.7196 21.231 15.7196 21.2757C15.7196 21.3204 15.683 21.357 15.6383 21.357C15.5936 21.357 15.557 21.3936 15.557 21.4383C15.557 21.483 15.5204 21.5196 15.4757 21.5196C15.431 21.5196 15.3944 21.5562 15.3944 21.6009C15.3944 21.6457 15.3578 21.6822 15.3131 21.6822C15.2684 21.6822 15.2318 21.7188 15.2318 21.7636C15.2318 21.8083 15.1952 21.8449 15.1505 21.8449C15.1057 21.8449 15.0692 21.8815 15.0692 21.9262C15.0692 21.9709 15.0326 22.0075 14.9879 22.0075C14.9431 22.0075 14.9065 22.0441 14.9065 22.0888C14.9065 22.1335 14.87 22.1701 14.8252 22.1701C14.771 22.1701 14.7439 22.2243 14.7439 22.3327C14.7439 22.4411 14.7168 22.4953 14.6626 22.4953C14.6179 22.4953 14.5813 22.5319 14.5813 22.5766C14.5813 22.6214 14.5589 22.6579 14.5314 22.6579C14.504 22.6579 14.4654 22.7311 14.4458 22.8206C14.4262 22.91 14.3754 22.9832 14.3331 22.9832C14.2907 22.9832 14.2561 23.0198 14.2561 23.0645C14.2561 23.1092 14.2195 23.1458 14.1748 23.1458C14.1206 23.1458 14.0935 23.2 14.0935 23.3084C14.0935 23.4168 14.0664 23.471 14.0121 23.471C13.9579 23.471 13.9308 23.5252 13.9308 23.6336C13.9308 23.7421 13.9037 23.7963 13.8495 23.7963C13.7999 23.7963 13.7682 23.8468 13.7682 23.926C13.7682 23.9973 13.7316 24.0697 13.6869 24.0869C13.6422 24.104 13.6056 24.1772 13.6056 24.2495C13.6056 24.3218 13.569 24.395 13.5243 24.4121C13.4768 24.4304 13.443 24.5116 13.443 24.6077C13.443 24.7176 13.4161 24.772 13.3617 24.772C13.3105 24.772 13.2804 24.8236 13.2804 24.9113C13.2804 24.988 13.2438 25.0873 13.1991 25.1321C13.1543 25.1768 13.1178 25.2822 13.1178 25.3663C13.1178 25.4522 13.0821 25.5329 13.0364 25.5505C12.9807 25.5718 12.9551 25.6589 12.9551 25.8273C12.9551 26.0095 12.9342 26.0729 12.8738 26.0729C12.8136 26.0729 12.7925 26.1362 12.7925 26.3168C12.7925 26.4975 12.7714 26.5607 12.7112 26.5607C12.6512 26.5607 12.6299 26.6235 12.6299 26.8002C12.6299 26.9372 12.6023 27.0488 12.5653 27.0611C12.527 27.0739 12.4913 27.2349 12.4773 27.4586C12.4644 27.6654 12.4269 27.8517 12.394 27.8725C12.3611 27.8934 12.3247 28.1007 12.3131 28.3333C12.3015 28.5658 12.2664 28.7723 12.235 28.7921C12.2017 28.813 12.1675 29.1351 12.1529 29.5645C12.1391 29.9695 12.1067 30.3009 12.0808 30.3009C12.0548 30.3009 12.0336 30.8742 12.0336 31.5748C12.0336 32.3879 12.0533 32.8486 12.0879 32.8486C12.1205 32.8486 12.1421 33.0722 12.1421 33.411V33.9735L12.451 33.9991C12.6209 34.0132 12.7693 34.0528 12.7808 34.0871C12.8098 34.1742 16.3521 34.1764 16.3811 34.0894C16.3935 34.0523 16.6395 34.0181 17.0226 34.0004C17.3789 33.9839 17.6601 33.9465 17.6819 33.9127C17.7027 33.8803 17.9101 33.8444 18.1426 33.833C18.4284 33.8189 18.5795 33.7878 18.6088 33.7369C18.6375 33.6871 18.7531 33.6617 18.9514 33.6617C19.1452 33.6617 19.2794 33.633 19.3321 33.5804C19.3792 33.5332 19.5116 33.4991 19.6476 33.4991C19.8058 33.4991 19.892 33.4727 19.9131 33.4178C19.9335 33.3646 20.0179 33.3365 20.157 33.3365C20.296 33.3365 20.3805 33.3083 20.4009 33.2551C20.4189 33.2083 20.4999 33.1738 20.5919 33.1738C20.6798 33.1738 20.76 33.1488 20.7702 33.1183C20.7804 33.0878 20.8859 33.0471 21.0046 33.0278C21.1234 33.0086 21.253 32.9603 21.2927 32.9207C21.3323 32.881 21.4118 32.8486 21.4693 32.8486C21.5268 32.8486 21.5738 32.8245 21.5738 32.795C21.5738 32.7656 21.6699 32.7261 21.7873 32.7073C21.9047 32.6886 22.0137 32.6395 22.0295 32.5983C22.0454 32.5571 22.12 32.5234 22.1955 32.5234C22.271 32.5234 22.3327 32.4982 22.3327 32.4675C22.3327 32.4367 22.3754 32.3954 22.4276 32.3757C22.4797 32.3559 22.5547 32.3078 22.594 32.2689C22.6334 32.23 22.7127 32.1981 22.7702 32.1981C22.8277 32.1981 22.8748 32.1742 22.8748 32.145C22.8748 32.1157 22.934 32.0769 23.0064 32.0588C23.0787 32.0406 23.1512 31.9913 23.1673 31.9493C23.1834 31.9073 23.2339 31.8729 23.2796 31.8729C23.3253 31.8729 23.3626 31.849 23.3626 31.8197C23.3626 31.7905 23.4218 31.7517 23.4942 31.7335C23.5666 31.7154 23.639 31.6661 23.6551 31.6241C23.6713 31.582 23.7218 31.5477 23.7675 31.5477C23.8131 31.5477 23.8505 31.5238 23.8505 31.4945C23.8505 31.4653 23.9114 31.426 23.986 31.4073C24.0605 31.3886 24.1215 31.3394 24.1215 31.2979C24.1215 31.2564 24.1581 31.2224 24.2028 31.2224C24.2475 31.2224 24.2841 31.1858 24.2841 31.1411C24.2841 31.0964 24.3096 31.0598 24.3409 31.0598C24.3721 31.0598 24.4542 30.9988 24.5233 30.9243C24.5924 30.8498 24.6672 30.7888 24.6897 30.7888C24.753 30.7888 25.585 29.9358 25.585 29.8708C25.585 29.8391 25.6216 29.8131 25.6664 29.8131C25.7115 29.8131 25.7477 29.7649 25.7477 29.7047C25.7477 29.6445 25.7838 29.5963 25.829 29.5963C25.8737 29.5963 25.9103 29.5597 25.9103 29.515C25.9103 29.4702 25.9442 29.4336 25.9857 29.4336C26.0272 29.4336 26.0765 29.3727 26.0952 29.2981C26.1139 29.2236 26.1531 29.1626 26.1823 29.1626C26.2116 29.1626 26.2355 29.1253 26.2355 29.0796C26.2355 29.0339 26.2699 28.9834 26.3119 28.9673C26.354 28.9512 26.4032 28.8787 26.4214 28.8064C26.4395 28.734 26.4784 28.6748 26.5076 28.6748C26.5368 28.6748 26.5607 28.6382 26.5607 28.5935C26.5607 28.5487 26.5973 28.5122 26.6421 28.5122C26.6868 28.5122 26.7234 28.4651 26.7234 28.4076C26.7234 28.3501 26.76 28.2665 26.8047 28.2218C26.8494 28.1771 26.886 28.1021 26.886 28.0553C26.886 28.0084 26.9226 27.9701 26.9673 27.9701C27.0181 27.9701 27.0486 27.9187 27.0486 27.8329C27.0486 27.7574 27.0852 27.6816 27.1299 27.6645C27.1746 27.6473 27.2112 27.5749 27.2112 27.5035C27.2112 27.4244 27.2429 27.3738 27.2925 27.3738C27.3467 27.3738 27.3738 27.3196 27.3738 27.2112C27.3738 27.1028 27.4009 27.0486 27.4551 27.0486C27.5119 27.0486 27.5364 26.9914 27.5364 26.8589C27.5364 26.7264 27.5609 26.6692 27.6178 26.6692C27.6765 26.6692 27.6991 26.6089 27.6991 26.4523C27.6991 26.2957 27.7217 26.2355 27.7804 26.2355C27.8346 26.2355 27.8617 26.1813 27.8617 26.0729C27.8617 25.9645 27.8888 25.9103 27.943 25.9103C28.0033 25.9103 28.0243 25.8469 28.0243 25.6647C28.0243 25.4963 28.0499 25.4092 28.1056 25.3878C28.1605 25.3668 28.1869 25.2806 28.1869 25.1223C28.1869 24.9864 28.221 24.854 28.2682 24.8068C28.3139 24.7612 28.3495 24.6287 28.3495 24.5048C28.3495 24.3448 28.3719 24.2841 28.4308 24.2841C28.4959 24.2841 28.5121 24.2028 28.5121 23.8776C28.5121 23.5523 28.5284 23.471 28.5935 23.471C28.6597 23.471 28.6748 23.3807 28.6748 22.9832C28.6748 22.5961 28.6908 22.4953 28.7523 22.4953C28.8158 22.4953 28.8331 22.335 28.8472 21.6189C28.8598 20.9786 28.8828 20.7365 28.9322 20.72C28.9814 20.7037 29 20.5211 29 20.0561C29 19.591 28.9814 19.4084 28.9322 19.3921C28.8823 19.3755 28.86 19.1175 28.8475 18.4119L28.8304 17.4542H28.6758C28.5907 17.4542 28.5131 17.4301 28.5031 17.4007C28.4836 17.3427 25.9236 17.2907 24.921 17.3279ZM10.3663 38.5208L10.3804 41.2776L14.4801 41.2915L18.5797 41.3054L18.6125 41.183C18.6305 41.1158 18.6456 39.8679 18.646 38.4099L18.6467 35.7591L17.8482 35.7915C17.3641 35.8111 17.0422 35.8464 17.0306 35.8811C17.0009 35.9702 12.4836 35.9601 12.4538 35.8708C12.4372 35.821 12.1589 35.7981 11.3918 35.7836L10.3523 35.764L10.3663 38.5208Z" fill="#FBFAFF"/>
<path fill-rule="evenodd" clip-rule="evenodd" d="M14.2855 0.081313C14.2855 0.126035 14.2489 0.162626 14.2042 0.162626C14.1595 0.162626 14.1229 0.18702 14.1229 0.216835C14.1229 0.24665 14.0863 0.271043 14.0416 0.271043C13.9968 0.271043 13.9602 0.305683 13.9602 0.348074C13.9602 0.390411 13.8871 0.44115 13.7976 0.460774C13.7082 0.480397 13.635 0.531136 13.635 0.573473C13.635 0.615865 13.6073 0.650504 13.5735 0.650504C13.5396 0.650504 13.4563 0.710514 13.3883 0.783858C13.3204 0.857148 13.2017 0.932985 13.1246 0.952338C13.0475 0.97169 12.9845 1.02145 12.9845 1.06292C12.9845 1.10445 12.9572 1.13838 12.9239 1.13838C12.8907 1.13838 12.7687 1.23596 12.653 1.35522C12.5372 1.47448 12.4181 1.57205 12.3882 1.57205C12.3584 1.57205 12.334 1.60864 12.334 1.65337C12.334 1.69809 12.2974 1.73468 12.2527 1.73468C12.208 1.73468 12.1714 1.77127 12.1714 1.81599C12.1714 1.86071 12.1348 1.8973 12.09 1.8973C12.0453 1.8973 12.0087 1.9339 12.0087 1.97862C12.0087 2.02334 11.9721 2.05993 11.9274 2.05993C11.8827 2.05993 11.8461 2.09652 11.8461 2.14124C11.8461 2.18597 11.8095 2.22256 11.7648 2.22256C11.7201 2.22256 11.6835 2.25915 11.6835 2.30387C11.6835 2.34859 11.6469 2.38518 11.6022 2.38518C11.5574 2.38518 11.5209 2.42177 11.5209 2.4665C11.5209 2.51122 11.4843 2.54781 11.4395 2.54781C11.3948 2.54781 11.3582 2.5844 11.3582 2.62912C11.3582 2.67384 11.3216 2.71043 11.2769 2.71043C11.2322 2.71043 11.1956 2.74703 11.1956 2.79175C11.1956 2.83647 11.159 2.87306 11.1143 2.87306C11.0696 2.87306 11.033 2.89859 11.033 2.92987C11.033 2.9611 10.972 3.04317 10.8975 3.11223C10.8229 3.18135 10.7619 3.25697 10.7619 3.28039C10.7619 3.30375 10.6766 3.40582 10.5722 3.50714C10.4679 3.60851 10.3825 3.71579 10.3825 3.7456C10.3825 3.77542 10.3249 3.85353 10.2545 3.91918C10.1841 3.98483 10.1081 4.09726 10.0855 4.16897C10.063 4.24069 9.98979 4.35046 9.92289 4.41291C9.856 4.47536 9.78282 4.58513 9.76027 4.65685C9.73772 4.72857 9.66285 4.83959 9.59384 4.90356C9.52484 4.96747 9.45187 5.08564 9.43171 5.16614C9.41149 5.24659 9.37517 5.31245 9.35094 5.31245C9.32671 5.31245 9.29131 5.38357 9.27217 5.47052C9.25309 5.55753 9.20235 5.64209 9.15947 5.65857C9.11659 5.67505 9.08146 5.75024 9.08146 5.82575C9.08146 5.90121 9.05902 5.96296 9.03154 5.96296C9.00411 5.96296 8.96557 6.03614 8.94594 6.12558C8.92632 6.21503 8.88973 6.28821 8.86463 6.28821C8.83953 6.28821 8.80294 6.36139 8.78332 6.45083C8.76369 6.54028 8.72835 6.61346 8.70482 6.61346C8.6813 6.61346 8.6485 6.71456 8.63191 6.8381C8.61538 6.96164 8.57933 7.07754 8.55185 7.09559C8.52442 7.11364 8.48685 7.22407 8.46836 7.34089C8.44993 7.45776 8.41248 7.56753 8.38521 7.58483C8.358 7.60217 8.31756 7.75049 8.29544 7.91447C8.27332 8.07845 8.23635 8.22481 8.21331 8.23972C8.19027 8.25463 8.16268 8.43758 8.15211 8.64629L8.13281 9.02575L8.34965 9.04331C8.46891 9.05301 8.586 9.09568 8.60985 9.13818C8.63918 9.19054 8.74982 9.21548 8.9525 9.21548C9.1463 9.21548 9.28052 9.24415 9.33316 9.29679C9.38097 9.3446 9.5134 9.3781 9.65451 9.3781C9.83177 9.3781 9.8946 9.39935 9.8946 9.45942C9.8946 9.51937 9.95721 9.54073 10.1327 9.54073C10.2944 9.54073 10.3809 9.56686 10.4021 9.62204C10.4225 9.67522 10.5069 9.70336 10.646 9.70336C10.7851 9.70336 10.8695 9.73149 10.89 9.78467C10.9071 9.82939 10.9846 9.86598 11.0623 9.86598C11.1399 9.86598 11.2399 9.90257 11.2847 9.9473C11.3294 9.99202 11.4374 10.0286 11.5247 10.0286C11.6297 10.0286 11.6835 10.0561 11.6835 10.1099C11.6835 10.1635 11.737 10.1912 11.8403 10.1912C11.9297 10.1912 12.0106 10.2262 12.0284 10.2725C12.0455 10.3173 12.1187 10.3539 12.191 10.3539C12.2632 10.3539 12.3364 10.3905 12.3536 10.4352C12.3707 10.4799 12.4439 10.5165 12.5162 10.5165C12.5885 10.5165 12.6617 10.5531 12.6789 10.5978C12.696 10.6425 12.7718 10.6791 12.8473 10.6791C12.9331 10.6791 12.9845 10.7096 12.9845 10.7604C12.9845 10.8051 13.0211 10.8417 13.0658 10.8417C13.1105 10.8417 13.1471 10.8642 13.1471 10.8917C13.1471 10.9191 13.2203 10.9576 13.3097 10.9773C13.3992 10.9969 13.4724 11.0476 13.4724 11.09C13.4724 11.1324 13.509 11.167 13.5537 11.167C13.5984 11.167 13.635 11.1894 13.635 11.2169C13.635 11.2443 13.7082 11.2829 13.7976 11.3025C13.8871 11.3221 13.9602 11.3729 13.9602 11.4152C13.9602 11.4647 14.0185 11.4922 14.1229 11.4922C14.2272 11.4922 14.2855 11.4647 14.2855 11.4152C14.2855 11.3729 14.3587 11.3221 14.4481 11.3025C14.5376 11.2829 14.6108 11.2443 14.6108 11.2169C14.6108 11.1894 14.6473 11.167 14.6921 11.167C14.7368 11.167 14.7734 11.1324 14.7734 11.09C14.7734 11.0476 14.8466 10.9969 14.936 10.9773C15.0254 10.9576 15.0986 10.9191 15.0986 10.8917C15.0986 10.8642 15.1352 10.8417 15.1799 10.8417C15.2247 10.8417 15.2613 10.8051 15.2613 10.7604C15.2613 10.7062 15.3155 10.6791 15.4239 10.6791C15.5323 10.6791 15.5865 10.652 15.5865 10.5978C15.5865 10.5436 15.6407 10.5165 15.7491 10.5165C15.8576 10.5165 15.9118 10.4894 15.9118 10.4352C15.9118 10.381 15.966 10.3539 16.0744 10.3539C16.1828 10.3539 16.237 10.3268 16.237 10.2725C16.237 10.2183 16.2912 10.1912 16.3996 10.1912C16.5081 10.1912 16.5623 10.1641 16.5623 10.1099C16.5623 10.0557 16.6165 10.0286 16.7249 10.0286C16.8333 10.0286 16.8875 10.0015 16.8875 9.9473C16.8875 9.88707 16.9508 9.86598 17.1315 9.86598C17.3121 9.86598 17.3754 9.84489 17.3754 9.78467C17.3754 9.72444 17.4387 9.70336 17.6193 9.70336C17.8 9.70336 17.8633 9.68227 17.8633 9.62204C17.8633 9.56182 17.9265 9.54073 18.1072 9.54073C18.2879 9.54073 18.3512 9.51964 18.3512 9.45942C18.3512 9.39691 18.4206 9.3781 18.651 9.3781C18.8675 9.3781 18.9595 9.3555 18.982 9.29679C19.0044 9.23857 19.0954 9.21548 19.3029 9.21548C19.4943 9.21548 19.6073 9.18973 19.6359 9.13969C19.6669 9.08554 19.8251 9.05843 20.1897 9.04483C20.5357 9.03187 20.7075 9.0039 20.7228 8.95799C20.7352 8.92074 20.7799 8.89023 20.8221 8.89023C20.8714 8.89023 20.899 8.83179 20.899 8.7276C20.899 8.63815 20.8781 8.56497 20.8526 8.56497C20.827 8.56497 20.7898 8.38917 20.7698 8.17429C20.7498 7.95941 20.7135 7.77033 20.6891 7.75417C20.6647 7.73797 20.6296 7.62911 20.6111 7.51229C20.5927 7.39542 20.5561 7.28565 20.5298 7.26836C20.5036 7.25101 20.467 7.14124 20.4485 7.02442C20.4301 6.90754 20.3932 6.79777 20.3666 6.78048C20.3401 6.76313 20.3015 6.65753 20.2809 6.5457C20.2604 6.43392 20.2214 6.34242 20.1942 6.34242C20.1671 6.34242 20.1289 6.25704 20.1094 6.15269C20.0898 6.04833 20.054 5.96296 20.0299 5.96296C20.0058 5.96296 19.9699 5.88977 19.9503 5.80033C19.9307 5.71089 19.8948 5.6377 19.8706 5.6377C19.8463 5.6377 19.8112 5.57672 19.7925 5.50218C19.7738 5.42765 19.7346 5.36666 19.7053 5.36666C19.6761 5.36666 19.6522 5.31787 19.6522 5.25824C19.6522 5.19802 19.616 5.14983 19.5708 5.14983C19.52 5.14983 19.4895 5.09844 19.4895 5.01262C19.4895 4.93711 19.4552 4.86219 19.4131 4.84604C19.3711 4.82994 19.3218 4.75752 19.3037 4.68515C19.2855 4.61273 19.2467 4.55353 19.2175 4.55353C19.1882 4.55353 19.1643 4.50474 19.1643 4.44511C19.1643 4.38489 19.1281 4.3367 19.083 4.3367C19.0382 4.3367 19.0017 4.3001 19.0017 4.25538C19.0017 4.21066 18.967 4.17407 18.9246 4.17407C18.8823 4.17407 18.8315 4.10089 18.8119 4.01144C18.7923 3.922 18.7538 3.84882 18.7263 3.84882C18.6988 3.84882 18.6764 3.81223 18.6764 3.7675C18.6764 3.72278 18.6398 3.68619 18.5951 3.68619C18.5504 3.68619 18.5138 3.6496 18.5138 3.60488C18.5138 3.56016 18.4798 3.52357 18.4383 3.52357C18.3968 3.52357 18.3476 3.46258 18.3289 3.38804C18.3102 3.31351 18.2709 3.25252 18.2417 3.25252C18.2124 3.25252 18.1885 3.21593 18.1885 3.17121C18.1885 3.12649 18.1519 3.0899 18.1072 3.0899C18.0625 3.0899 18.0259 3.05255 18.0259 3.0069C18.0259 2.9612 17.9893 2.90981 17.9446 2.89268C17.8999 2.8755 17.8633 2.82747 17.8633 2.78595C17.8633 2.74442 17.8267 2.71043 17.782 2.71043C17.7372 2.71043 17.7006 2.67384 17.7006 2.62912C17.7006 2.5844 17.6641 2.54781 17.6193 2.54781C17.5746 2.54781 17.538 2.51122 17.538 2.4665C17.538 2.42177 17.5014 2.38518 17.4567 2.38518C17.412 2.38518 17.3754 2.34859 17.3754 2.30387C17.3754 2.25915 17.3388 2.22256 17.2941 2.22256C17.2494 2.22256 17.2128 2.18597 17.2128 2.14124C17.2128 2.09652 17.1762 2.05993 17.1315 2.05993C17.0867 2.05993 17.0501 2.02334 17.0501 1.97862C17.0501 1.9339 17.0246 1.8973 16.9933 1.8973C16.9621 1.8973 16.88 1.83632 16.811 1.76178C16.7419 1.68725 16.6577 1.62626 16.6238 1.62626C16.59 1.62626 16.5623 1.58967 16.5623 1.54495C16.5623 1.50023 16.5257 1.46363 16.481 1.46363C16.4362 1.46363 16.3996 1.42704 16.3996 1.38232C16.3996 1.3376 16.363 1.30101 16.3183 1.30101C16.2736 1.30101 16.237 1.26637 16.237 1.22398C16.237 1.18164 16.1638 1.1309 16.0744 1.11128C15.9849 1.09165 15.9118 1.04092 15.9118 0.998579C15.9118 0.956187 15.8752 0.921548 15.8304 0.921548C15.7857 0.921548 15.7491 0.897154 15.7491 0.867339C15.7491 0.837524 15.7125 0.81313 15.6678 0.81313C15.6231 0.81313 15.5865 0.778491 15.5865 0.7361C15.5865 0.693763 15.5133 0.643023 15.4239 0.6234C15.3344 0.603776 15.2613 0.553037 15.2613 0.5107C15.2613 0.468309 15.2247 0.43367 15.1799 0.43367C15.1352 0.43367 15.0986 0.409276 15.0986 0.379461C15.0986 0.349646 15.062 0.325252 15.0173 0.325252C14.9726 0.325252 14.936 0.290613 14.936 0.248221C14.936 0.205884 14.8628 0.155145 14.7734 0.135522C14.6839 0.115898 14.6108 0.0773561 14.6108 0.0499265C14.6108 0.0224427 14.5376 0 14.4481 0C14.3397 0 14.2855 0.0271043 14.2855 0.081313Z" fill="#C3B7FF"/>
<path fill-rule="evenodd" clip-rule="evenodd" d="M24.9186 17.3284C24.5981 17.3403 24.3359 17.37 24.3359 17.3945C24.3359 17.4188 24.0744 17.4557 23.7549 17.4764C23.4353 17.4971 23.1609 17.5343 23.1451 17.5592C23.1293 17.5841 22.9151 17.6221 22.6691 17.6437C22.4231 17.6653 22.2219 17.7023 22.2219 17.7261C22.2219 17.7499 22.0756 17.7864 21.8967 17.8071C21.7178 17.8279 21.5714 17.8637 21.5714 17.8868C21.5714 17.9098 21.4495 17.9449 21.3004 17.9646C21.1513 17.9844 21.0294 18.0241 21.0294 18.0529C21.0294 18.0817 20.9311 18.1053 20.8109 18.1053C20.6666 18.1053 20.5818 18.1329 20.5612 18.1866C20.5436 18.2323 20.4629 18.2679 20.377 18.2679C20.2929 18.2679 20.1916 18.3003 20.152 18.34C20.1123 18.3796 19.9845 18.4276 19.8679 18.4465C19.7513 18.4654 19.6415 18.5042 19.6239 18.5327C19.6063 18.5612 19.525 18.6013 19.4433 18.6218C19.3616 18.6423 19.2948 18.6808 19.2948 18.7074C19.2948 18.734 19.2478 18.7557 19.1902 18.7557C19.1328 18.7557 19.0533 18.7882 19.0136 18.8279C18.9739 18.8676 18.8745 18.9168 18.7929 18.9373C18.7112 18.9579 18.6443 18.9966 18.6443 19.0235C18.6443 19.0503 18.5712 19.0884 18.4817 19.1081C18.3923 19.1277 18.3191 19.1662 18.3191 19.1936C18.3191 19.2211 18.2825 19.2436 18.2378 19.2436C18.1931 19.2436 18.1565 19.2802 18.1565 19.3249C18.1565 19.3791 18.1023 19.4062 17.9939 19.4062C17.8895 19.4062 17.8313 19.4338 17.8313 19.4832C17.8313 19.5255 17.7581 19.5763 17.6686 19.5959C17.5792 19.6155 17.506 19.6541 17.506 19.6815C17.506 19.709 17.4694 19.7314 17.4247 19.7314C17.38 19.7314 17.3434 19.768 17.3434 19.8127C17.3434 19.8574 17.3068 19.894 17.2621 19.894C17.2174 19.894 17.1808 19.9306 17.1808 19.9753C17.1808 20.0296 17.1266 20.0567 17.0182 20.0567C16.9098 20.0567 16.8556 20.0838 16.8556 20.138C16.8556 20.1827 16.819 20.2193 16.7742 20.2193C16.7295 20.2193 16.6929 20.2559 16.6929 20.3006C16.6929 20.3453 16.6563 20.3819 16.6116 20.3819C16.5669 20.3819 16.5303 20.4185 16.5303 20.4632C16.5303 20.5079 16.4937 20.5445 16.449 20.5445C16.4043 20.5445 16.3677 20.5811 16.3677 20.6258C16.3677 20.6705 16.3311 20.7071 16.2864 20.7071C16.2417 20.7071 16.2051 20.7418 16.2051 20.7841C16.2051 20.8265 16.1319 20.8772 16.0425 20.8968C15.9164 20.9245 15.8798 20.9621 15.8798 21.0637C15.8798 21.1442 15.8484 21.195 15.7985 21.195C15.7538 21.195 15.7172 21.2316 15.7172 21.2763C15.7172 21.321 15.6806 21.3576 15.6359 21.3576C15.5912 21.3576 15.5546 21.3942 15.5546 21.4389C15.5546 21.4836 15.518 21.5202 15.4733 21.5202C15.4286 21.5202 15.392 21.5568 15.392 21.6015C15.392 21.6462 15.3554 21.6828 15.3107 21.6828C15.266 21.6828 15.2294 21.7194 15.2294 21.7641C15.2294 21.8089 15.1928 21.8454 15.1481 21.8454C15.1034 21.8454 15.0668 21.882 15.0668 21.9267C15.0668 21.9715 15.0302 22.0081 14.9855 22.0081C14.9407 22.0081 14.9041 22.0446 14.9041 22.0894C14.9041 22.1341 14.8676 22.1707 14.8228 22.1707C14.7686 22.1707 14.7415 22.2249 14.7415 22.3333C14.7415 22.4417 14.7144 22.4959 14.6602 22.4959C14.6155 22.4959 14.5789 22.5325 14.5789 22.5772C14.5789 22.6219 14.5565 22.6585 14.529 22.6585C14.5016 22.6585 14.463 22.7317 14.4434 22.8211C14.4238 22.9106 14.373 22.9838 14.3307 22.9838C14.2883 22.9838 14.2537 23.0203 14.2537 23.0651C14.2537 23.1098 14.2171 23.1464 14.1724 23.1464C14.1182 23.1464 14.0911 23.2006 14.0911 23.309C14.0911 23.4174 14.064 23.4716 14.0098 23.4716C13.9555 23.4716 13.9284 23.5258 13.9284 23.6342C13.9284 23.7426 13.9013 23.7968 13.8471 23.7968C13.7975 23.7968 13.7658 23.8474 13.7658 23.9266C13.7658 23.9979 13.7292 24.0703 13.6845 24.0875C13.6398 24.1046 13.6032 24.1778 13.6032 24.2501C13.6032 24.3224 13.5666 24.3955 13.5219 24.4127C13.4744 24.4309 13.4406 24.5122 13.4406 24.6082C13.4406 24.7182 13.4137 24.7725 13.3593 24.7725C13.3081 24.7725 13.278 24.8241 13.278 24.9119C13.278 24.9886 13.2414 25.0879 13.1967 25.1326C13.152 25.1774 13.1154 25.2828 13.1154 25.3669C13.1154 25.4528 13.0797 25.5335 13.0341 25.551C12.9783 25.5724 12.9527 25.6595 12.9527 25.8279C12.9527 26.0101 12.9318 26.0735 12.8714 26.0735C12.8112 26.0735 12.7901 26.1367 12.7901 26.3174C12.7901 26.4981 12.769 26.5613 12.7088 26.5613C12.6488 26.5613 12.6275 26.624 12.6275 26.8008C12.6275 26.9377 12.5999 27.0493 12.563 27.0616C12.5246 27.0744 12.4889 27.2355 12.4749 27.4592C12.462 27.666 12.4245 27.8522 12.3916 27.8731C12.3587 27.894 12.3223 28.1013 12.3107 28.3339C12.2991 28.5664 12.264 28.7729 12.2326 28.7926C12.1993 28.8136 12.1651 29.1357 12.1505 29.5651C12.1367 29.9701 12.1043 30.3015 12.0784 30.3015C12.0524 30.3015 12.0312 30.8747 12.0312 31.5753C12.0312 32.3884 12.0509 32.8492 12.0855 32.8492C12.1181 32.8492 12.1397 33.0728 12.1397 33.4116V33.9741L12.4486 33.9997C12.6185 34.0138 12.7669 34.0534 12.7784 34.0877C12.8074 34.1748 16.3497 34.177 16.3787 34.0899C16.3911 34.0529 16.6372 34.0187 17.0202 34.001C17.3765 33.9845 17.6577 33.9471 17.6795 33.9133C17.7003 33.8809 17.9077 33.845 18.1402 33.8336C18.4261 33.8195 18.5771 33.7883 18.6064 33.7375C18.6351 33.6876 18.7507 33.6623 18.949 33.6623C19.1428 33.6623 19.277 33.6336 19.3297 33.581C19.3768 33.5337 19.5092 33.4996 19.6452 33.4996C19.8034 33.4996 19.8896 33.4732 19.9107 33.4183C19.9311 33.3652 20.0155 33.337 20.1546 33.337C20.2936 33.337 20.3781 33.3089 20.3985 33.2557C20.4165 33.2089 20.4975 33.1744 20.5895 33.1744C20.6774 33.1744 20.7576 33.1494 20.7678 33.1189C20.778 33.0884 20.8835 33.0477 21.0022 33.0284C21.121 33.0091 21.2506 32.9609 21.2903 32.9213C21.3299 32.8816 21.4094 32.8492 21.4669 32.8492C21.5244 32.8492 21.5714 32.8251 21.5714 32.7956C21.5714 32.7661 21.6675 32.7267 21.7849 32.7079C21.9023 32.6892 22.0113 32.6401 22.0271 32.5989C22.043 32.5577 22.1176 32.5239 22.1931 32.5239C22.2686 32.5239 22.3303 32.4988 22.3303 32.4681C22.3303 32.4373 22.373 32.396 22.4252 32.3762C22.4773 32.3565 22.5523 32.3084 22.5916 32.2695C22.631 32.2306 22.7104 32.1987 22.7678 32.1987C22.8253 32.1987 22.8724 32.1748 22.8724 32.1455C22.8724 32.1163 22.9316 32.0775 23.004 32.0594C23.0763 32.0412 23.1488 31.9919 23.1649 31.9499C23.181 31.9078 23.2315 31.8735 23.2772 31.8735C23.3229 31.8735 23.3602 31.8496 23.3602 31.8203C23.3602 31.7911 23.4194 31.7523 23.4918 31.7341C23.5642 31.716 23.6366 31.6667 23.6527 31.6247C23.6689 31.5826 23.7194 31.5482 23.7651 31.5482C23.8107 31.5482 23.8481 31.5243 23.8481 31.4951C23.8481 31.4659 23.9091 31.4266 23.9836 31.4079C24.0581 31.3892 24.1191 31.3399 24.1191 31.2985C24.1191 31.2569 24.1557 31.223 24.2004 31.223C24.2451 31.223 24.2817 31.1864 24.2817 31.1417C24.2817 31.097 24.3072 31.0604 24.3385 31.0604C24.3697 31.0604 24.4518 30.9994 24.5209 30.9249C24.59 30.8503 24.6648 30.7894 24.6873 30.7894C24.7507 30.7894 25.5827 29.9363 25.5827 29.8713C25.5827 29.8396 25.6192 29.8137 25.664 29.8137C25.7091 29.8137 25.7453 29.7655 25.7453 29.7053C25.7453 29.645 25.7814 29.5968 25.8266 29.5968C25.8713 29.5968 25.9079 29.5603 25.9079 29.5155C25.9079 29.4708 25.9418 29.4342 25.9833 29.4342C26.0248 29.4342 26.0741 29.3732 26.0928 29.2987C26.1115 29.2242 26.1507 29.1632 26.1799 29.1632C26.2092 29.1632 26.2331 29.1258 26.2331 29.0802C26.2331 29.0345 26.2675 28.984 26.3096 28.9678C26.3516 28.9517 26.4008 28.8793 26.419 28.807C26.4372 28.7345 26.476 28.6753 26.5052 28.6753C26.5345 28.6753 26.5584 28.6388 26.5584 28.594C26.5584 28.5493 26.5949 28.5127 26.6397 28.5127C26.6844 28.5127 26.721 28.4657 26.721 28.4082C26.721 28.3507 26.7576 28.2671 26.8023 28.2224C26.847 28.1776 26.8836 28.1027 26.8836 28.0558C26.8836 28.009 26.9202 27.9707 26.9649 27.9707C27.0157 27.9707 27.0462 27.9193 27.0462 27.8335C27.0462 27.758 27.0828 27.6822 27.1275 27.6651C27.1722 27.6479 27.2088 27.5755 27.2088 27.5041C27.2088 27.425 27.2405 27.3744 27.2901 27.3744C27.3443 27.3744 27.3714 27.3202 27.3714 27.2118C27.3714 27.1034 27.3985 27.0492 27.4527 27.0492C27.5096 27.0492 27.5341 26.9919 27.5341 26.8595C27.5341 26.727 27.5586 26.6697 27.6154 26.6697C27.6741 26.6697 27.6967 26.6095 27.6967 26.4529C27.6967 26.2963 27.7193 26.2361 27.778 26.2361C27.8322 26.2361 27.8593 26.1819 27.8593 26.0735C27.8593 25.9651 27.8864 25.9109 27.9406 25.9109C28.0009 25.9109 28.0219 25.8474 28.0219 25.6653C28.0219 25.4969 28.0475 25.4098 28.1032 25.3884C28.1581 25.3673 28.1845 25.2812 28.1845 25.1229C28.1845 24.987 28.2186 24.8546 28.2658 24.8074C28.3115 24.7618 28.3471 24.6293 28.3471 24.5054C28.3471 24.3453 28.3695 24.2847 28.4284 24.2847C28.4935 24.2847 28.5098 24.2034 28.5098 23.8782C28.5098 23.5529 28.526 23.4716 28.5911 23.4716C28.6573 23.4716 28.6724 23.3812 28.6724 22.9838C28.6724 22.5967 28.6884 22.4959 28.7499 22.4959C28.8134 22.4959 28.8307 22.3356 28.8448 21.6195C28.8574 20.9792 28.8804 20.737 28.9299 20.7206C28.979 20.7043 28.9976 20.5217 28.9976 20.0567C28.9976 19.5916 28.979 19.409 28.9299 19.3927C28.8799 19.3761 28.8576 19.118 28.8451 18.4125L28.828 17.4548H28.6734C28.5884 17.4548 28.5107 17.4307 28.5007 17.4012C28.4812 17.3433 25.9212 17.2912 24.9186 17.3284Z" fill="#8073C5"/>
<rect x="43.5" y="20.5" width="64" height="18" stroke="#8073C5"/>
<path d="M47.348 15.168C50.106 15.168 51.982 13.096 51.982 10.338C51.982 7.58 50.106 5.508 47.348 5.508C44.576 5.508 42.714 7.58 42.714 10.338C42.714 13.096 44.576 15.168 47.348 15.168ZM47.348 14.132C45.248 14.132 43.918 12.508 43.918 10.338C43.918 8.154 45.248 6.544 47.348 6.544C49.434 6.544 50.778 8.154 50.778 10.338C50.778 12.508 49.434 14.132 47.348 14.132ZM61.2731 15L58.7531 11.192C60.0271 11.08 61.1751 10.156 61.1751 8.476C61.1751 6.754 59.9571 5.662 58.2491 5.662H54.4971V15H55.6591V11.29H57.5211L59.9011 15H61.2731ZM58.1091 10.268H55.6591V6.698H58.1091C59.2151 6.698 59.9711 7.426 59.9711 8.476C59.9711 9.526 59.2151 10.268 58.1091 10.268ZM68.1387 15.182C69.6647 15.182 70.9387 14.538 71.8067 13.572V10.198H67.4387V11.234H70.6447V13.138C70.1827 13.6 69.2587 14.146 68.1387 14.146C66.0947 14.146 64.5407 12.55 64.5407 10.338C64.5407 8.112 66.0947 6.544 68.1387 6.544C69.2587 6.544 70.2527 7.076 70.8407 7.832L71.7647 7.258C70.9387 6.236 69.7907 5.508 68.1387 5.508C65.4787 5.508 63.3367 7.44 63.3367 10.338C63.3367 13.236 65.4787 15.182 68.1387 15.182ZM82.3481 15L78.5821 5.662H77.1401L73.3881 15H74.7181L75.5441 12.928H80.1921L81.0181 15H82.3481ZM79.8421 11.892H75.8801L77.8681 6.866L79.8421 11.892ZM91.997 15V5.662H90.835V12.956L85.459 5.662H84.269V15H85.431V7.552L90.877 15H91.997ZM96.0431 15V5.662H94.8811V15H96.0431ZM103.355 15.168C105.007 15.168 106.127 14.384 106.911 13.32L105.917 12.774C105.385 13.572 104.419 14.132 103.355 14.132C101.311 14.132 99.7567 12.55 99.7567 10.338C99.7567 8.112 101.311 6.544 103.355 6.544C104.419 6.544 105.385 7.118 105.917 7.902L106.897 7.356C106.155 6.306 105.007 5.508 103.355 5.508C100.667 5.508 98.5527 7.468 98.5527 10.338C98.5527 13.208 100.667 15.168 103.355 15.168Z" fill="white"/>
<path d="M52.116 34.168C54.636 34.168 55.56 32.782 55.56 31.424C55.56 27.938 50.03 29.142 50.03 27.042C50.03 26.16 50.828 25.558 51.948 25.558C52.97 25.558 53.95 25.908 54.65 26.678L55.35 25.824C54.566 24.998 53.46 24.522 52.032 24.522C50.198 24.522 48.826 25.572 48.826 27.112C48.826 30.444 54.356 29.114 54.356 31.522C54.356 32.236 53.824 33.132 52.158 33.132C50.842 33.132 49.834 32.488 49.218 31.802L48.532 32.684C49.302 33.552 50.492 34.168 52.116 34.168ZM71.0991 34V24.662H69.9371V28.68H64.4771V24.662H63.3151V34H64.4771V29.716H69.9371V34H71.0991ZM83.5579 34.168C86.3159 34.168 88.1919 32.096 88.1919 29.338C88.1919 26.58 86.3159 24.508 83.5579 24.508C80.7859 24.508 78.9239 26.58 78.9239 29.338C78.9239 32.096 80.7859 34.168 83.5579 34.168ZM83.5579 33.132C81.4579 33.132 80.1279 31.508 80.1279 29.338C80.1279 27.154 81.4579 25.544 83.5579 25.544C85.6439 25.544 86.9879 27.154 86.9879 29.338C86.9879 31.508 85.6439 33.132 83.5579 33.132ZM97.189 34V30.29H99.779C101.627 30.29 102.705 29.002 102.705 27.476C102.705 25.95 101.655 24.662 99.779 24.662H96.027V34H97.189ZM99.639 29.254H97.189V25.698H99.639C100.745 25.698 101.501 26.426 101.501 27.476C101.501 28.526 100.745 29.254 99.639 29.254Z" fill="#8073C5"/>
</svg>
