<svg width="34" height="36" viewBox="0 0 34 36" fill="none" xmlns="http://www.w3.org/2000/svg">
<path d="M8.8 19.4444C5.5955 19.4444 3 22.03 3 25.2222C3 28.4144 5.5955 31 8.8 31C12.0045 31 14.6 28.4144 14.6 25.2222C14.6 22.03 12.0045 19.4444 8.8 19.4444ZM8.8 28.1111C7.205 28.1111 5.9 26.8111 5.9 25.2222C5.9 23.6333 7.205 22.3333 8.8 22.3333C10.395 22.3333 11.7 23.6333 11.7 25.2222C11.7 26.8111 10.395 28.1111 8.8 28.1111ZM8.8 5C5.5955 5 3 7.58556 3 10.7778C3 13.97 5.5955 16.5556 8.8 16.5556C12.0045 16.5556 14.6 13.97 14.6 10.7778C14.6 7.58556 12.0045 5 8.8 5ZM17.5 7.88889H32V10.7778H17.5V7.88889ZM17.5 28.1111V25.2222H32V28.1111H17.5ZM17.5 16.5556H32V19.4444H17.5V16.5556Z" fill="#484D6B"/>
</svg>
