<svg width="34" height="36" viewBox="0 0 34 36" fill="none" xmlns="http://www.w3.org/2000/svg">
<path d="M20.4 5C17.3235 5 14.373 6.21746 12.1976 8.38454C10.0221 10.5516 8.8 13.4908 8.8 16.5556C8.8 19.6203 10.0221 22.5595 12.1976 24.7266C14.373 26.8937 17.3235 28.1111 20.4 28.1111C23.4765 28.1111 26.427 26.8937 28.6024 24.7266C30.7779 22.5595 32 19.6203 32 16.5556C32 13.4908 30.7779 10.5516 28.6024 8.38454C26.427 6.21746 23.4765 5 20.4 5ZM7.2485 10.5178C4.566 12.7133 3 15.9922 3 19.4444C3 22.5092 4.22214 25.4484 6.39756 27.6155C8.57298 29.7825 11.5235 31 14.6 31C15.528 31 16.4415 30.8844 17.326 30.6678C14.774 30.1044 12.425 28.8333 10.4965 27.0856C7.669 25.5833 5.9 22.6367 5.9 19.4444C5.9 19.0111 5.9435 18.5922 6.0015 18.1589C5.9435 17.6244 5.9 17.09 5.9 16.5556C5.9 14.4756 6.364 12.41 7.2485 10.5178ZM26.3305 10.8933L28.375 12.9444L18.95 22.3333L13.4545 16.8589L15.5135 14.8078L18.95 18.2456" fill="#80D079"/>
</svg>
