<svg width="34" height="36" viewBox="0 0 34 36" fill="none" xmlns="http://www.w3.org/2000/svg">
<path d="M26.3281 9.67187C24.0625 7.40625 20.9531 6 17.5 6C14.1848 6 11.0054 7.31696 8.66117 9.66117C6.31696 12.0054 5 15.1848 5 18.5C5 21.8152 6.31696 24.9946 8.66117 27.3388C11.0054 29.683 14.1848 31 17.5 31C23.3281 31 28.1875 27.0156 29.5781 21.625H26.3281C25.0469 25.2656 21.5781 27.875 17.5 27.875C15.0136 27.875 12.629 26.8873 10.8709 25.1291C9.11272 23.371 8.125 20.9864 8.125 18.5C8.125 16.0136 9.11272 13.629 10.8709 11.8709C12.629 10.1127 15.0136 9.125 17.5 9.125C20.0938 9.125 22.4062 10.2031 24.0937 11.9063L19.0625 16.9375H30V6L26.3281 9.67187Z" fill="#484D6B"/>
</svg>
