<svg width="34" height="36" viewBox="0 0 34 36" fill="none" xmlns="http://www.w3.org/2000/svg">
<path d="M20.2 23.5867V18.6667H22.225V22.4267L25.519 24.3067L24.5065 26.04L20.2 23.5867ZM26.275 6L24.25 4L22.225 6L20.2 4L18.175 6L16.15 4L14.125 6L12.1 4L10.075 6L8.05 4L6.025 6L4 4V30.6667L6.025 28.6667L8.05 30.6667L10.075 28.6667L12.1 30.6667L14.233 28.56C14.422 28.8133 14.638 29.04 14.8675 29.2667C16.636 31.0133 19.039 32 21.55 32C26.761 32 31 27.8267 31 22.6667C31 20.2267 30.028 17.88 28.3 16.1333V4L26.275 6ZM14.935 16C14.125 16.76 13.4905 17.6667 13.0045 18.6667H8.05V16H14.935ZM12.1945 21.3333C12.1 21.7733 12.1 22.2133 12.1 22.6667C12.1 23.12 12.1 23.56 12.1945 24H8.05V21.3333H12.1945ZM24.25 13.3333H8.05V10.6667H24.25V13.3333ZM28.0975 22.6667C28.0975 23.52 27.9355 24.36 27.625 25.1467C27.274 25.92 26.788 26.6667 26.1805 27.24C25.6 27.84 24.844 28.32 24.061 28.6667C23.2645 28.9733 22.414 29.1333 21.55 29.1333C17.932 29.1333 15.0025 26.24 15.0025 22.6667C15.0025 20.9467 15.691 19.3333 16.9195 18.0933C18.175 16.88 19.8085 16.2 21.55 16.2C25.1545 16.2 28.0975 19.0933 28.0975 22.6667Z" fill="#EDC679"/>
</svg>
