<svg width="34" height="36" viewBox="0 0 34 36" fill="none" xmlns="http://www.w3.org/2000/svg">
<path d="M26.2727 28.6562C25.6579 28.6562 25.0683 28.4093 24.6335 27.9698C24.1988 27.5302 23.9545 26.9341 23.9545 26.3125C23.9545 25.6909 24.1988 25.0948 24.6335 24.6552C25.0683 24.2157 25.6579 23.9688 26.2727 23.9688C26.8875 23.9688 27.4772 24.2157 27.9119 24.6552C28.3467 25.0948 28.5909 25.6909 28.5909 26.3125C28.5909 26.9341 28.3467 27.5302 27.9119 27.9698C27.4772 28.4093 26.8875 28.6562 26.2727 28.6562ZM28.5909 14.5938L31.62 18.5H24.7273V14.5938M7.72727 28.6562C7.11245 28.6562 6.52281 28.4093 6.08807 27.9698C5.65333 27.5302 5.40909 26.9341 5.40909 26.3125C5.40909 25.6909 5.65333 25.0948 6.08807 24.6552C6.52281 24.2157 7.11245 23.9688 7.72727 23.9688C8.34209 23.9688 8.93173 24.2157 9.36648 24.6552C9.80122 25.0948 10.0455 25.6909 10.0455 26.3125C10.0455 26.9341 9.80122 27.5302 9.36648 27.9698C8.93173 28.4093 8.34209 28.6562 7.72727 28.6562ZM29.3636 12.25H24.7273V6H3.09091C1.37545 6 0 7.39062 0 9.125V26.3125H3.09091C3.09091 27.5557 3.57938 28.748 4.44887 29.6271C5.31836 30.5061 6.49763 31 7.72727 31C8.95691 31 10.1362 30.5061 11.0057 29.6271C11.8752 28.748 12.3636 27.5557 12.3636 26.3125H21.6364C21.6364 27.5557 22.1248 28.748 22.9943 29.6271C23.8638 30.5061 25.0431 31 26.2727 31C27.5024 31 28.6816 30.5061 29.5511 29.6271C30.4206 28.748 30.9091 27.5557 30.9091 26.3125H34V18.5L29.3636 12.25Z" fill="#484D6B"/>
</svg>
